<?xml version="1.0" encoding="utf-8"?>
<!-- Generator: Adobe Illustrator 26.1.0, SVG Export Plug-In . SVG Version: 6.00 Build 0)  -->
<svg version="1.1" id="Layer_1" xmlns="http://www.w3.org/2000/svg" xmlns:xlink="http://www.w3.org/1999/xlink" x="0px" y="0px"
	 viewBox="0 0 142.93 164.95" style="enable-background:new 0 0 142.93 164.95;" xml:space="preserve">
<style type="text/css">
	.st0{fill:#8280D9;}
	.st1{fill:#5F5CCE;}
	.st2{fill:#FDFDFD;}
	.st3{fill:#5F5CCF;}
	.st4{opacity:0.2;fill:#FFFFFF;}
	.st5{opacity:0.5;fill:#FFFFFF;}
</style>
<g>
	<path class="st0" d="M0,44.76c0.03-0.03,0.06-0.04,0.1-0.03c0.19,0.16,0.19,0.38,0.21,0.6c0.01,0.22,0.01,0.44,0.01,0.66
		c0,29.76,0,59.53-0.01,89.29c0,0.42,0.13,0.88-0.21,1.25l-0.05,0L0,136.5C0,105.92,0,75.34,0,44.76z"/>
	<path class="st1" d="M0.1,136.53c0.01-0.6,0.02-1.19,0.02-1.79c0-29.85,0-59.69,0-89.54c0-0.16-0.02-0.32-0.02-0.47
		c0.57-7.44,3.59-13.52,9.86-17.79c1.63-1.11,3.52-1.61,5.4-2.13c22.98-6.35,45.95-12.7,68.92-19.05
		c6.22-1.72,12.42-3.48,18.66-5.13c3.89-1.03,7.75-0.85,11.46,0.87c2.36,1.09,4.26,2.75,5.75,4.87c0.22,0.31,0.46,0.45,0.81,0.51
		c4.08,0.77,7.3,2.87,9.62,6.33c0.19,0.28,0.43,0.43,0.75,0.52c6.25,1.69,9.81,5.88,11.18,12.1c0.32,1.44,0.42,2.9,0.42,4.38
		c0,37.75,0,75.5-0.01,113.25c0,6.32-2.2,11.77-6.76,16.18c-3.66,3.53-8.06,5.44-13.17,5.75c-5.49,0.33-10.98,0.14-16.46,0.15
		c-24.06,0.04-48.13,0.03-72.19,0.02c-4.74,0-8.48-2.01-11.18-5.89c-0.45-0.65-0.91-1.04-1.73-1.22c-3.25-0.68-5.72-2.57-7.63-5.21
		c-0.49-0.68-0.95-1.07-1.85-1.2c-3.54-0.49-6.25-2.43-8.33-5.25C1.38,143.74,0.25,140.3,0.1,136.53z"/>
	<path class="st2" d="M119.98,74.01c0,18.78,0,37.57,0,56.35c0,5.3-1.79,9.87-5.55,13.62c-3.4,3.39-7.54,5.11-12.36,5.14
		c-10.22,0.06-20.45,0.11-30.67,0.17c-7.25,0.04-14.49,0.08-21.74,0.12c-6.55,0.04-13.1,0.08-19.65,0.11
		c-5.14,0.03-10.28,0-15.42,0.12c-5.06,0.12-8.46-2.34-10.76-6.6c-1.2-2.23-1.75-4.66-1.82-7.2C2,135.5,2,135.16,2,134.82
		C2,105.18,2,75.53,1.99,45.89c0-4.86,1.45-9.2,4.46-13.01c2.08-2.63,4.72-4.38,8-5.27c29.14-7.87,58.27-15.77,87.4-23.66
		c2.7-0.73,5.42-1.04,8.17-0.34c4.93,1.26,7.96,4.46,9.37,9.28c0.47,1.61,0.59,3.27,0.59,4.95
		C119.98,36.56,119.98,55.29,119.98,74.01z"/>
	<path class="st3" d="M122.34,10.85c1.73,0.75,3.12,1.75,4.29,3.04c2.38,2.64,3.4,5.81,3.57,9.3c0.02,0.42,0.02,0.83,0.02,1.25
		c0,37.43-0.01,74.86,0.01,112.29c0,4.82-1.42,9.11-4.58,12.76c-3.06,3.53-6.92,5.62-11.62,6.09c-0.75,0.07-1.5,0.09-2.26,0.1
		c-10.44,0.06-20.89,0.11-31.33,0.17c-6.75,0.04-13.5,0.08-20.25,0.12c-6.95,0.04-13.9,0.08-20.85,0.12
		c-5.08,0.03-10.16,0.06-15.25,0.1c-3.27,0.02-5.9-1.33-8.07-3.7c-0.05-0.05-0.08-0.12-0.13-0.2c0.25-0.13,0.49-0.07,0.72-0.07
		c28.39-0.01,56.78-0.05,85.17,0c10.2,0.02,18.03-6.98,20.47-15.53c0.6-2.09,0.89-4.23,0.89-6.4c0-37.79,0-75.58,0-113.36
		c0-1.85-0.2-3.68-0.69-5.48C122.43,11.29,122.4,11.14,122.34,10.85z"/>
	<path class="st4" d="M122.34,10.85c1.73,0.75,3.12,1.75,4.29,3.04c2.38,2.64,3.4,5.81,3.57,9.3c0.02,0.42,0.02,0.83,0.02,1.25
		c0,37.43-0.01,74.86,0.01,112.29c0,4.82-1.42,9.11-4.58,12.76c-3.06,3.53-6.92,5.62-11.62,6.09c-0.75,0.07-1.5,0.09-2.26,0.1
		c-10.44,0.06-20.89,0.11-31.33,0.17c-6.75,0.04-13.5,0.08-20.25,0.12c-6.95,0.04-13.9,0.08-20.85,0.12
		c-5.08,0.03-10.16,0.06-15.25,0.1c-3.27,0.02-5.9-1.33-8.07-3.7c-0.05-0.05-0.08-0.12-0.13-0.2c0.25-0.13,0.49-0.07,0.72-0.07
		c28.39-0.01,56.78-0.05,85.17,0c10.2,0.02,18.03-6.98,20.47-15.53c0.6-2.09,0.89-4.23,0.89-6.4c0-37.79,0-75.58,0-113.36
		c0-1.85-0.2-3.68-0.69-5.48C122.43,11.29,122.4,11.14,122.34,10.85z"/>
	<path class="st3" d="M25.21,158.76c0.37,0,0.58,0,0.79,0c28.65,0,57.3-0.05,85.95,0.01c10.32,0.02,18.15-7.02,20.57-15.56
		c0.58-2.06,0.88-4.15,0.88-6.28c0-37.85,0-75.69,0-113.54c0-1.65-0.17-3.29-0.56-4.9c-0.04-0.15-0.05-0.3-0.1-0.57
		c1.35,0.72,2.47,1.57,3.43,2.64c2.38,2.65,3.4,5.81,3.57,9.31c0.02,0.42,0.02,0.83,0.02,1.25c0,37.45,0,74.9,0.01,112.35
		c0,4.49-1.24,8.54-4.05,12.05c-3.13,3.92-7.17,6.24-12.2,6.74c-0.63,0.06-1.27,0.09-1.9,0.09c-10.52,0.06-21.04,0.11-31.57,0.17
		c-6.85,0.04-13.7,0.08-20.55,0.12c-6.79,0.04-13.58,0.08-20.37,0.12c-5.18,0.03-10.36,0.07-15.54,0.1
		C30.19,162.87,27.52,161.39,25.21,158.76z"/>
	<path class="st5" d="M25.21,158.76c0.37,0,0.58,0,0.79,0c28.65,0,57.3-0.05,85.95,0.01c10.32,0.02,18.15-7.02,20.57-15.56
		c0.58-2.06,0.88-4.15,0.88-6.28c0-37.85,0-75.69,0-113.54c0-1.65-0.17-3.29-0.56-4.9c-0.04-0.15-0.05-0.3-0.1-0.57
		c1.35,0.72,2.47,1.57,3.43,2.64c2.38,2.65,3.4,5.81,3.57,9.31c0.02,0.42,0.02,0.83,0.02,1.25c0,37.45,0,74.9,0.01,112.35
		c0,4.49-1.24,8.54-4.05,12.05c-3.13,3.92-7.17,6.24-12.2,6.74c-0.63,0.06-1.27,0.09-1.9,0.09c-10.52,0.06-21.04,0.11-31.57,0.17
		c-6.85,0.04-13.7,0.08-20.55,0.12c-6.79,0.04-13.58,0.08-20.37,0.12c-5.18,0.03-10.36,0.07-15.54,0.1
		C30.19,162.87,27.52,161.39,25.21,158.76z"/>
	<path class="st1" d="M26.93,53.3c0.03,1.33-0.1,2.66,0.21,3.97c0.2,0.84,0.48,1.05,1.33,1.2c1.3,0.23,2.52-0.2,3.76-0.42
		c1.58-0.28,3.15-0.62,4.73-0.92c1.85-0.36,3.1,0.88,2.79,2.75c-0.25,1.56-1.3,2.58-2.84,2.87c-2.24,0.42-4.5,0.75-6.72,1.3
		c-1.99,0.49-2.94,2.25-2.36,4.21c0.52,1.77,1.63,3.13,3.04,4.24c2.6,2.05,5.33,3.94,8.11,5.75c1.01,0.66,1.12,1.68,1.06,2.74
		c-0.11,1.83-1.75,3.26-3.38,3c-0.45-0.07-0.81-0.3-1.15-0.59c-2.39-2-4.79-3.99-7.19-5.97c-0.6-0.49-1.27-0.88-1.98-1.2
		c-1.12-0.51-2.18-0.43-3.21,0.27c-1.32,0.89-2.38,2.04-3.42,3.21c-2.21,2.47-4.4,4.95-6.63,7.41c-0.92,1.02-2.46,0.99-3.22-0.03
		c-0.37-0.49-0.53-1.07-0.54-1.67c-0.01-1.09,0.26-2.05,1.1-2.84c2.74-2.57,5.41-5.2,7.86-8.05c1.35-1.57,2.57-3.24,3.08-5.3
		c0.14-0.56,0.21-1.13,0.17-1.71c-0.06-0.93-0.48-1.36-1.41-1.45c-1.17-0.12-2.28,0.23-3.41,0.43c-1.54,0.27-3.08,0.57-4.62,0.85
		c-1.16,0.21-1.96-0.31-2.17-1.47c-0.13-0.73-0.09-1.46,0.16-2.17c0.33-0.95,1-1.49,1.98-1.68c2.41-0.47,4.82-0.95,7.23-1.43
		c0.02,0,0.04,0,0.06-0.01c2.02-0.41,2.83-1.32,2.9-3.38c0.06-1.75,0.03-3.49,0.04-5.24c0.01-1.06,0.31-2,1.11-2.72
		c0.66-0.6,1.44-0.89,2.3-0.52c0.86,0.36,1.2,1.11,1.21,2.01C26.93,51.6,26.93,52.45,26.93,53.3z"/>
	<path class="st1" d="M102.43,60.15c0,4.01,0,8.02,0,12.03c0,2.38-1.3,3.83-3.66,4.09c-1.53,0.17-2.53-0.65-2.65-2.19
		c-0.04-0.47-0.06-0.95-0.06-1.43c0-5.28,0-10.56,0-15.84c0-1.64-0.17-3.24-0.73-4.8c-0.46-1.28-1.38-1.88-2.68-2
		c-1.26-0.12-2.49,0.05-3.73,0.28c-5.3,1.02-10.6,2.01-15.9,3.05c-2.5,0.49-3.23-0.9-3.03-2.93c0.16-1.67,1.06-2.57,2.87-2.95
		c4.24-0.87,8.48-1.73,12.72-2.58c3.66-0.74,7.31-1.5,10.97-2.18c2.43-0.45,4.62,0.68,5.42,2.67c0.37,0.92,0.46,1.88,0.46,2.86
		C102.43,52.21,102.43,56.18,102.43,60.15z"/>
	<path class="st1" d="M83.27,102.88c-0.06-1.98,0.09-3.97-0.35-5.93c-0.4-1.8-1.15-2.42-3.02-2.49c-1.58-0.06-3.12,0.23-4.68,0.39
		c-2.66,0.27-5.32,0.6-7.99,0.88c-1.65,0.17-2.69-0.93-2.65-2.73c0.04-1.71,1.14-2.9,2.84-3.11c6.7-0.82,13.39-1.64,20.09-2.46
		c6.24-0.76,12.49-1.5,18.73-2.29c2.25-0.28,3.45,1.46,3.08,3.46c-0.35,1.84-1.29,2.63-3.22,2.83c-3.97,0.43-7.93,0.87-11.89,1.32
		c-0.61,0.07-1.2,0.24-1.8,0.39c-1.77,0.45-2.66,1.65-2.97,3.4c-0.18,1.04-0.27,2.09-0.28,3.14c-0.02,2.01,0.01,4.01-0.02,6.02
		c-0.03,1.65-0.98,2.8-2.54,3.17c-1.78,0.42-3.2-0.59-3.31-2.43C83.22,105.27,83.27,104.08,83.27,102.88z"/>
	<path class="st1" d="M25.41,111.06c0-2.92,0-5.84,0-8.75c0-0.58,0.03-1.15,0.2-1.71c0.36-1.13,1.33-1.78,2.56-1.7
		c1.03,0.06,1.83,0.86,1.99,2.03c0.05,0.35,0.06,0.71,0.06,1.07c0,3.75,0.01,7.5,0,11.25c0,1.37,0.12,2.73,0.51,4.06
		c0.46,1.57,1.24,2.22,2.87,2.4c1.65,0.18,3.29-0.07,4.93-0.16c2.69-0.15,5.38-0.37,8.07-0.55c1.42-0.1,2.85-0.21,4.28-0.26
		c1.7-0.06,2.44,0.64,2.56,2.33c0.15,2.11-0.83,3.19-2.95,3.3c-6.67,0.37-13.35,0.75-20.02,1.15c-2.71,0.16-4.78-1.65-4.99-4.46
		c-0.17-2.22-0.04-4.44-0.07-6.67C25.4,113.28,25.41,112.17,25.41,111.06z"/>
	<path class="st1" d="M52.85,70.71c0,6.51,0,13.02,0,19.53c0,0.67-0.02,1.34-0.26,2c-0.49,1.33-1.87,1.77-2.93,1.69
		c-1.08-0.09-1.79-0.94-1.94-2.22c-0.03-0.26-0.03-0.51-0.03-0.77c0-13.12,0-26.24,0-39.36c0-0.62,0.02-1.23,0.21-1.82
		c0.47-1.45,2.17-2.34,3.63-1.91c0.45,0.13,0.76,0.4,0.93,0.84c0.25,0.63,0.39,1.28,0.39,1.97C52.85,57.33,52.85,64.02,52.85,70.71z
		"/>
</g>
</svg>
