<?xml version="1.0" encoding="utf-8"?>
<!-- Generator: Adobe Illustrator 26.1.0, SVG Export Plug-In . SVG Version: 6.00 Build 0)  -->
<svg version="1.1" id="Layer_1" xmlns="http://www.w3.org/2000/svg" xmlns:xlink="http://www.w3.org/1999/xlink" x="0px" y="0px"
	 viewBox="0 0 142.9 164.9" style="enable-background:new 0 0 142.9 164.9;" xml:space="preserve">
<style type="text/css">
	.st0{fill:#3B4161;}
	.st1{fill:#5F5CCF;}
	.st2{fill:#FFFFFF;}
	.st3{opacity:0.25;fill:#9BA9B4;}
	.st4{opacity:0.25;}
	.st5{fill:#FEC9CD;}
	.st6{fill:#030303;}
	.st7{fill:#040404;}
	.st8{fill:#FEFEFE;}
	.st9{fill:#9BA9B4;}
	.st10{fill:#FDFDFD;}
	.st11{fill:#ECB9DA;}
</style>
<g>
	<path class="st0" d="M137.9,111.5c0.6,0.6,1.3,0.9,2,1.2c1.3,0.6,1.7,1.5,1,2.7c-1,2-2.5,3.5-4.5,4.6c0.5,0.5,1,0.9,1.5,1.3
		c1,1,1.1,1.8,0.1,2.9c-2.1,2.6-4.7,4.7-7.4,6.5c-7,4.8-14.9,7.5-23.1,9.2c-11,2.2-22.1,2.9-33.3,3c-8.1,0.1-16.2-0.1-24.2-0.9
		c-9-0.9-17.9-2.2-26.4-5.5c-6.4-2.5-12.3-5.8-17.2-10.7c-0.6-0.6-1.1-1.2-1.6-1.9c-0.7-0.9-0.6-1.7,0.2-2.5
		c0.3-0.3,0.6-0.5,0.8-0.8c0.3-0.2,0.5-0.5,0.8-0.7c-2-1.1-3.4-2.6-4.5-4.5c-0.7-1.4-0.4-2.3,1-2.9c0.7-0.3,1.3-0.6,1.9-1.2
		c-2.4-1.4-3.9-3.5-4.8-6c-0.6-1.6-0.2-2.4,1.5-2.8c1.9-0.4,3.7-1.1,5.5-1.9c0.8-0.4,1.1-0.8,1-1.7c-0.7-7.5,0.1-14.8,2.3-22
		c0.2-0.7,0.4-1.4,0.7-2.1c0.8-1.5,0.6-3,0.2-4.6C9,61.3,8.5,52,9.3,42.6c0.4-4.8,1.2-9.5,2.8-14.1c0.4-1.2,0.9-2.3,1.5-3.4
		c1.2-2.1,3-3.2,5.4-3.3c4.7-0.3,9.2,0.8,13.5,2.4c7.4,2.7,13.8,6.8,18.7,13.1c0.3,0.4,0.7,0.4,1.1,0.3c6-1.2,12-1.7,18.1-1.8
		c6.8-0.1,13.5,0.4,20.1,1.8c0.5,0.1,0.8,0,1.2-0.4c6.3-7.8,14.6-12.3,24.1-14.6c2.9-0.7,5.9-1.1,9-0.6c1.7,0.3,3.1,1.1,4,2.6
		c1.7,2.6,2.6,5.6,3.2,8.6c2.7,13.1,2.4,26.1-0.9,39c-0.1,0.5-0.1,0.8,0.1,1.3c3.1,8.2,4.4,16.7,3.5,25.4c-0.1,1,0.2,1.5,1.1,1.9
		c1.8,0.8,3.6,1.4,5.5,1.9c1.4,0.3,1.9,1.2,1.4,2.6C141.9,107.8,140.5,110.1,137.9,111.5z"/>
	<g>
		<path class="st1" d="M131.6,97.6c-0.1,1-0.1,2-0.3,2.9c-0.2,1,0.2,1.6,1,2.1c1.9,1.1,3.8,2,5.9,2.6c0.7,0.2,0.8,0.4,0.3,0.9
			c-0.6,0.3-0.9,0.9-1.3,1.3c-0.7,0.6-1.5,1-2.5,1c-1.2,0-1.7,0.6-1.8,1.6c0,0.8,0.4,1.3,0.8,1.9c0.8,1,1.7,1.9,2.9,2.6
			c0.4,0.3,0.5,0.4,0.1,0.8c-1,1-2.1,1.7-3.5,2c-1.7,0.3-1.9,0.6-2.1,2.3c-0.2,0.4-0.6,0.6-1,0.7c-5.5,1.9-11.1,3.4-16.9,4
			c-5.5,0.6-11,0.4-16.3-1.5c-6.4-2.2-11-6.3-13.6-12.6c-1-2.3-1.8-4.7-3-6.9c-1.1-2.2-2.7-3.9-5-4.7c-3.3-1-6.5-0.9-9.5,1.1
			c-1.3,0.9-2.1,2.2-2.9,3.6c-1.2,2.2-2,4.6-3,6.8c-1.6,3.6-3.7,6.8-6.9,9.2c-3,2.2-6.4,3.6-10,4.4c-3.7,0.8-7.4,0.9-11.2,0.7
			c-6.8-0.5-13.2-2.2-19.6-4.5c-0.3-0.1-0.6-0.2-0.7-0.5c0-1.4-0.4-1.9-1.8-2.2c-1.7-0.3-3-1.1-4-2.5c1.4-0.9,2.6-2,3.6-3.3
			c0.4-0.5,0.6-1,0.6-1.6c-0.1-0.9-0.8-1.7-1.8-1.7c-1.5,0-2.4-0.7-3.2-1.7c-0.2-0.2-0.4-0.4-0.6-0.6c-0.5-0.5-0.4-0.7,0.3-0.9
			c2.1-0.6,4.1-1.5,6-2.6c0.8-0.5,1.2-1.2,1-2.1c-0.2-1-0.2-1.9-0.3-2.9c1.1-0.4,2.2-0.3,3.4-0.4c1.6-0.1,3.3-0.3,4.9-0.8
			c1.8-0.5,2.1-1.7,1-3.2c-1-1.4-2.4-2.3-3.7-3.4c-1.3-1-2.8-1.9-4.3-2.7c-0.4-0.2-0.7-0.4-0.9-0.8c0.2-1.9,0.7-3.8,1.1-5.7
			c0.4-0.5,0.8-0.1,1.1,0c2,0.9,3.9,1.8,6,2.5c1.1,0.4,2.2,0.6,3.3,0.8c1.6,0.3,2.4-0.5,2.3-2.1c-0.1-0.9-0.4-1.8-0.9-2.6
			c-2-3.1-4.5-5.5-7.3-7.8c-0.3-0.3-0.9-0.5-0.6-1.1c0.4-0.7,0.8-1.5,1.1-2.2c0.5-1,0.2-1.9-0.7-2.4c-0.8-0.4-1.7-0.1-2.3,0.8
			c-0.2,0.4-0.4,0.8-0.7,1.3c-0.6-2.7-1-5.2-1.2-7.7c-0.7-6.8-0.7-13.6,0.2-20.4c0.5-3.7,1.1-7.3,2.5-10.7c1.5-3.8,1.9-4.3,6.3-3.9
			c9.9,1,18.4,5.2,25.3,12.4c0.1,0.1,0.2,0.3,0.3,0.4c0.6,0.5,0.4,0.8-0.3,0.9c-1,0.2-1.9,0.6-2.8,0.8c-0.8,0.2-1.4,0.7-1.5,1.5
			c-0.1,0.9,0.4,1.4,1.1,1.8c1,0.2,1.1,0.3,1.2,1.6c0.2,2,0.4,4.1,0.6,6.1c0.6,4.2,1.2,8.4,2.6,12.5c0.6,1.8,1.4,3.7,3.2,4.7
			c0.2,0.1,0.3,0.3,0.2,0.6c-1.2,1.4-2.9,1.8-4.6,2.2c-0.6,0.1-1.1,0.2-1.7,0.2c-0.4,0-0.8,0.2-0.7,0.7c0.1,0.4,0.4,0.5,0.8,0.5
			c2.3,0.1,4.4-0.7,6.4-1.9c1.8-1.1,3.2-2.7,4.4-4.6c0.5-0.8,0.4-1.4-0.3-2c-0.2-0.6,0-1.1,0.2-1.7c1.1-4,1.5-8.2,1.9-12.3
			c0.2-2.8,0.4-5.6,0.4-8.5c0-0.4,0-0.8,0.5-1.1c1.6-0.2,3.3-0.4,4.9-0.5c0.8-0.2,0.8,0.4,0.9,0.9c0,1.3,0.2,2.5,0.2,3.8
			c0.1,5.1,0.5,10.2,1.2,15.3c0.5,3.6,1.1,7.1,2.6,10.4c0.4,0.9,0.9,1.7,1.7,2.3c0.8,0.6,1.5,0.6,2.4,0c0.7-0.6,1.2-1.3,1.6-2.1
			c1.2-2.6,1.8-5.4,2.3-8.3c0.8-4.5,1.1-8.9,1.4-13.5c0.2-2.6,0.3-5.2,0.4-7.8c0-0.5-0.1-1.3,0.9-1.1c1.6,0.2,3.3,0.3,4.9,0.5
			c0.5,0.3,0.5,0.8,0.5,1.2c0,4.6,0.4,9.2,0.9,13.8c0.3,2.3,0.7,4.6,1.3,6.8c0.1,0.5,0.3,1,0.3,1.6c0,0.1,0,0.1-0.1,0.2
			c-1.1,1-1.2,1-0.3,2.2c2.5,3.3,5.8,5.4,9.9,6.1c0.2,0,0.4,0.1,0.7,0c0.3,0,0.6-0.1,0.6-0.5c0-0.3-0.1-0.5-0.4-0.7
			c-0.4-0.1-0.7-0.2-1.1-0.3c-1.5-0.3-2.9-0.8-4.2-1.6c-0.4-0.2-0.8-0.4-0.9-0.9c0-0.1,0.1-0.3,0.2-0.3c2.1-1.4,2.8-3.6,3.5-5.8
			c1.3-4.4,1.9-8.9,2.4-13.4c0.2-1.5,0.3-2.9,0.4-4.4c0.1-0.7,0.3-1.2,1.1-1.2c0.8-0.3,1.2-0.9,1.1-1.8c-0.1-0.9-0.7-1.3-1.5-1.5
			c-1-0.3-2-0.6-3-0.9c-0.7-0.2-0.6-0.3-0.2-0.8c2.9-3.4,6.5-6,10.4-8.1c4.8-2.6,9.9-4.4,15.4-4.8c4.4-0.3,4.7,0.2,6.2,3.9
			c1.6,3.9,2.2,8.1,2.7,12.3c0.8,7.7,0.6,15.4-0.6,23c-0.1,0.8-0.3,1.7-0.4,2.5c0,0.3-0.1,0.5-0.2,1c-0.3-0.6-0.5-1-0.8-1.4
			c-0.5-0.9-1.5-1.1-2.3-0.7c-0.8,0.4-1.1,1.4-0.7,2.3c0.4,0.8,0.8,1.6,1.2,2.4c0.1,0.4-0.2,0.6-0.4,0.8c-0.9,0.8-1.8,1.6-2.7,2.4
			c-1.9,1.6-3.5,3.6-4.9,5.7c-0.5,0.8-0.8,1.6-0.9,2.5c-0.1,1.8,0.6,2.4,2.3,2.1c1.5-0.3,3-0.7,4.4-1.2c1.7-0.6,3.3-1.4,4.9-2.1
			c0.3-0.2,0.7-0.5,1.1,0c0.4,1.8,1,3.5,1,5.4c0,0.1,0.1,0.2,0.1,0.3c-0.1,0.4-0.4,0.6-0.8,0.8c-2.4,1.4-4.8,2.9-6.9,4.8
			c-0.6,0.5-1.1,1.1-1.5,1.7c-0.6,1-0.4,1.9,0.6,2.5c0.7,0.4,1.4,0.5,2.2,0.7c1.9,0.4,3.9,0.4,5.9,0.6
			C131,97.4,131.4,97.4,131.6,97.6z"/>
		<path class="st2" d="M11.7,119.7c3,1,6.1,2.1,9.2,2.8c5.3,1.3,10.7,2.2,16.2,2c5.6-0.2,10.9-1.6,15.6-4.9c2.4-1.7,4.3-3.9,5.7-6.5
			c1.3-2.4,2.2-4.9,3.3-7.4c0.6-1.4,1.3-2.8,2.2-4.1c2.2-3,5.4-3.8,8.9-3.5c3.9,0.2,6.4,2.3,8,5.7c1.4,2.9,2.4,5.9,3.9,8.7
			c2.1,4.2,5.3,7.1,9.5,9.1c5.5,2.6,11.2,3.2,17.2,2.8c6.4-0.5,12.5-2.1,18.6-4.1c0.4-0.1,0.8-0.4,1.2-0.5c0.8,1.1,1.8,1.8,2.8,2.7
			c0.5,0.5,0.5,0.7,0,1.2c-3.6,3.5-7.8,6.2-12.4,8.3c-6.6,3.1-13.7,4.7-20.9,5.8c-13.6,2-27.4,2.3-41.1,1.7
			c-8.9-0.4-17.8-1.3-26.5-3.4c-8.2-2-15.9-5.2-22.4-10.7c-0.8-0.7-2.1-1.4-2.2-2.3c-0.1-0.8,1.3-1.4,2.1-2.1
			C11.1,120.6,11.4,120.2,11.7,119.7z"/>
		<path class="st3" d="M11.7,119.7c3,1,6.1,2.1,9.2,2.8c5.3,1.3,10.7,2.2,16.2,2c5.6-0.2,10.9-1.6,15.6-4.9c2.4-1.7,4.3-3.9,5.7-6.5
			c1.3-2.4,2.2-4.9,3.3-7.4c0.6-1.4,1.3-2.8,2.2-4.1c2.2-3,5.4-3.8,8.9-3.5c3.9,0.2,6.4,2.3,8,5.7c1.4,2.9,2.4,5.9,3.9,8.7
			c2.1,4.2,5.3,7.1,9.5,9.1c5.5,2.6,11.2,3.2,17.2,2.8c6.4-0.5,12.5-2.1,18.6-4.1c0.4-0.1,0.8-0.4,1.2-0.5c0.8,1.1,1.8,1.8,2.8,2.7
			c0.5,0.5,0.5,0.7,0,1.2c-3.6,3.5-7.8,6.2-12.4,8.3c-6.6,3.1-13.7,4.7-20.9,5.8c-13.6,2-27.4,2.3-41.1,1.7
			c-8.9-0.4-17.8-1.3-26.5-3.4c-8.2-2-15.9-5.2-22.4-10.7c-0.8-0.7-2.1-1.4-2.2-2.3c-0.1-0.8,1.3-1.4,2.1-2.1
			C11.1,120.6,11.4,120.2,11.7,119.7z"/>
		<g>
			<path class="st1" d="M79.1,39.5c-0.4,0-0.6,0.2-0.6,0.6c0,1.4-0.1,2.8-0.1,4.2c-0.2,5.7-0.6,11.4-1.5,17
				c-0.4,2.4-0.9,4.8-1.7,7.1c-0.4,1.1-0.8,2.2-1.6,3.1c-1.3,1.7-3,1.7-4.3,0c-1-1.4-1.6-3-2-4.6c-1-3.8-1.6-7.6-2-11.5
				c-0.4-3.9-0.7-7.7-0.8-11.6c0-1.2-0.1-2.5-0.1-3.7c0-0.4-0.1-0.7-0.6-0.7c1.5-0.3,3.1-0.2,4.6-0.2C72,39.1,75.5,39.3,79.1,39.5z"
				/>
			<path class="st1" d="M58.8,40c-0.2,0.3-0.2,0.6-0.2,0.9C58.6,47,58.2,53,57.1,59c-0.2,1.2-0.6,2.3-0.8,3.5
				c-0.1,0.4-0.3,0.7-0.1,1.1c-0.5,0.4-0.9,1-1.3,1.6c-0.7,1.2-1.5,2.2-2.6,3c-0.2,0.1-0.4,0.4-0.7,0.2c0.2-0.3,0-0.3-0.2-0.5
				c-0.9-0.4-1.6-1.2-2.1-2.1c-1.7-3.1-2.4-6.6-3-10.1c-0.7-3.9-1.1-7.8-1.4-11.7c-0.1-0.6-0.3-1-0.9-1.1c1.2,0.1,2.3-0.4,3.5-0.8
				C51.2,41.2,55,40.5,58.8,40z"/>
			<path class="st1" d="M86.9,63.6c-1.3-4.7-2-9.5-2.3-14.4c-0.2-2.8-0.4-5.6-0.4-8.4c0-0.3,0-0.6-0.2-0.8c4.6,0.6,9.2,1.5,13.6,2.9
				c0.4,0.1,0.9,0.1,1.3,0.1C98,43.2,98.1,44,98,44.6c-0.4,4.8-0.9,9.5-2,14.2c-0.4,1.9-0.9,3.8-1.7,5.5c-0.7,1.6-1.5,3-3.1,3.8
				c-0.3,0.2-0.5-0.1-0.7-0.2C89.1,66.8,87.8,65.3,86.9,63.6z"/>
			<path class="st1" d="M16.6,70.3c0,0.3,0.2,0.5,0.4,0.6c2.4,1.9,4.7,3.9,6.5,6.4c1.1,1.4,2.2,2.8,2.3,4.7c0,1.7-0.9,2.5-2.5,2.2
				c-1.6-0.3-3.1-0.7-4.6-1.3c-1.7-0.6-3.4-1.4-5.1-2.2c-0.3-0.1-0.5-0.3-0.8-0.1C13.7,77.1,15,73.6,16.6,70.3z"/>
			<path class="st1" d="M130.1,80.6c-1-0.1-1.6,0.5-2.4,0.9c-2.5,1.1-5.1,2.1-7.8,2.6c-2.1,0.4-3.2-0.6-2.7-2.8
				c0.3-1.5,1.2-2.8,2.2-4c1.9-2.5,4.2-4.5,6.6-6.5c0.1-0.1,0.2-0.3,0.4-0.4C127.9,73.7,129.2,77.1,130.1,80.6z"/>
			<path class="st1" d="M11.7,86.4c1.7,1.1,3.5,2,5.1,3.2c1.4,1.1,2.9,2.1,4,3.6c1.2,1.6,0.7,3-1.2,3.6c-2.7,0.8-5.5,0.8-8.3,1
				C10.9,93.9,11.1,90.1,11.7,86.4z"/>
			<path class="st1" d="M131.6,97.6c-2.6-0.1-5.1-0.2-7.6-0.8c-0.5-0.1-1-0.3-1.5-0.6c-1.1-0.6-1.4-1.6-0.7-2.7
				c1.3-2,3.2-3.3,5.1-4.6c1.4-0.9,2.8-1.8,4.3-2.6C131.7,90.1,132,93.9,131.6,97.6z"/>
		</g>
		<g class="st4">
			<path class="st2" d="M79.1,39.5c-0.4,0-0.6,0.2-0.6,0.6c0,1.4-0.1,2.8-0.1,4.2c-0.2,5.7-0.6,11.4-1.5,17
				c-0.4,2.4-0.9,4.8-1.7,7.1c-0.4,1.1-0.8,2.2-1.6,3.1c-1.3,1.7-3,1.7-4.3,0c-1-1.4-1.6-3-2-4.6c-1-3.8-1.6-7.6-2-11.5
				c-0.4-3.9-0.7-7.7-0.8-11.6c0-1.2-0.1-2.5-0.1-3.7c0-0.4-0.1-0.7-0.6-0.7c1.5-0.3,3.1-0.2,4.6-0.2C72,39.1,75.5,39.3,79.1,39.5z"
				/>
			<path class="st2" d="M58.8,40c-0.2,0.3-0.2,0.6-0.2,0.9C58.6,47,58.2,53,57.1,59c-0.2,1.2-0.6,2.3-0.8,3.5
				c-0.1,0.4-0.3,0.7-0.1,1.1c-0.5,0.4-0.9,1-1.3,1.6c-0.7,1.2-1.5,2.2-2.6,3c-0.2,0.1-0.4,0.4-0.7,0.2c0.2-0.3,0-0.3-0.2-0.5
				c-0.9-0.4-1.6-1.2-2.1-2.1c-1.7-3.1-2.4-6.6-3-10.1c-0.7-3.9-1.1-7.8-1.4-11.7c-0.1-0.6-0.3-1-0.9-1.1c1.2,0.1,2.3-0.4,3.5-0.8
				C51.2,41.2,55,40.5,58.8,40z"/>
			<path class="st2" d="M86.9,63.6c-1.3-4.7-2-9.5-2.3-14.4c-0.2-2.8-0.4-5.6-0.4-8.4c0-0.3,0-0.6-0.2-0.8c4.6,0.6,9.2,1.5,13.6,2.9
				c0.4,0.1,0.9,0.1,1.3,0.1C98,43.2,98.1,44,98,44.6c-0.4,4.8-0.9,9.5-2,14.2c-0.4,1.9-0.9,3.8-1.7,5.5c-0.7,1.6-1.5,3-3.1,3.8
				c-0.3,0.2-0.5-0.1-0.7-0.2C89.1,66.8,87.8,65.3,86.9,63.6z"/>
			<path class="st2" d="M16.6,70.3c0,0.3,0.2,0.5,0.4,0.6c2.4,1.9,4.7,3.9,6.5,6.4c1.1,1.4,2.2,2.8,2.3,4.7c0,1.7-0.9,2.5-2.5,2.2
				c-1.6-0.3-3.1-0.7-4.6-1.3c-1.7-0.6-3.4-1.4-5.1-2.2c-0.3-0.1-0.5-0.3-0.8-0.1C13.7,77.1,15,73.6,16.6,70.3z"/>
			<path class="st2" d="M130.1,80.6c-1-0.1-1.6,0.5-2.4,0.9c-2.5,1.1-5.1,2.1-7.8,2.6c-2.1,0.4-3.2-0.6-2.7-2.8
				c0.3-1.5,1.2-2.8,2.2-4c1.9-2.5,4.2-4.5,6.6-6.5c0.1-0.1,0.2-0.3,0.4-0.4C127.9,73.7,129.2,77.1,130.1,80.6z"/>
			<path class="st2" d="M11.7,86.4c1.7,1.1,3.5,2,5.1,3.2c1.4,1.1,2.9,2.1,4,3.6c1.2,1.6,0.7,3-1.2,3.6c-2.7,0.8-5.5,0.8-8.3,1
				C10.9,93.9,11.1,90.1,11.7,86.4z"/>
			<path class="st2" d="M131.6,97.6c-2.6-0.1-5.1-0.2-7.6-0.8c-0.5-0.1-1-0.3-1.5-0.6c-1.1-0.6-1.4-1.6-0.7-2.7
				c1.3-2,3.2-3.3,5.1-4.6c1.4-0.9,2.8-1.8,4.3-2.6C131.7,90.1,132,93.9,131.6,97.6z"/>
		</g>
		<path d="M105,86.4c2.2,0.5,4.4,1,6.3,2.3c5,3.2,7.3,7.9,7.8,13.7c0.2,2.1-0.1,4.2-0.7,6.3c-1.3,4.5-4.2,7.2-8.8,8.2
			c-4.6,1-9.2,1-13.8,0.1c-4.9-0.9-7.9-3.7-8.9-10c-0.8-5.1,0.3-9.8,3.2-14.1c0.1-0.1,0.1-0.3,0.2-0.4c0.8-1.6,2.2-2.7,3.6-3.7
			c3-2.1,6.3-3,9.9-2.6C104.3,86.3,104.7,86.2,105,86.4z"/>
		<path d="M54,95c1.5,3.3,2.4,6.8,2.1,10.4c-0.2,2.2-0.7,4.3-1.7,6.3c-1.5,3-4.1,4.6-7.3,5.2c-4.6,0.8-9.2,0.9-13.7-0.1
			c-5-1-8.1-4.1-9.2-9.1c-1.6-7.2,0.2-13.4,5.9-18.2c3.6-3,8-3.7,12.7-3.2c2.4,0.2,4.4,1.2,6.3,2.6c1.7,1.2,3,2.8,4.2,4.5
			C53.7,94,54,94.5,54,95z"/>
		<path class="st5" d="M21.7,64.1c-0.5-2.1-0.5-4-0.6-5.9c-0.3-4.6-0.8-9.2-0.6-13.8c0.1-2,0.1-4.1,0.6-6.1c0.8-2.8,1.9-2.8,4.5-2.4
			c3,0.5,5.6,2.1,8.1,3.7c2.1,1.3,4.1,2.8,6.1,4.3c0.6,0.5,0.6,0.7,0,1.2c-1.8,1.2-3.5,2.6-5,4c-1.1,1-2.2,2-3.3,3
			c-1.8,1.8-3.5,3.7-5.1,5.7c-1.5,1.8-2.9,3.8-4.2,5.8C22.1,63.7,21.9,63.8,21.7,64.1z"/>
		<path class="st5" d="M121.1,64.1c-1.2-1.6-2.3-3.1-3.4-4.7c-1.2-1.8-2.7-3.3-4-4.9c-2.4-2.9-5.3-5.1-8.1-7.6
			c-0.8-0.7-1.7-1.3-2.6-1.8c-0.6-0.4-0.6-0.7-0.1-1.1c3.2-2.3,6.3-4.7,9.9-6.4c2-1,4.1-1.9,6.4-1.7c1,0.1,1.6,0.5,2,1.3
			c0.6,1.2,0.8,2.5,0.9,3.8c0.4,4.8,0.2,9.6-0.2,14.4c-0.2,2.8-0.5,5.6-0.8,8.4C121.3,63.7,121.2,63.8,121.1,64.1z"/>
		<path class="st1" d="M87.7,72.8c0.8,1.2,0.7,1.7-0.6,2.4c-0.3,0.2-0.6,0.3-0.9,0.5c-0.2,0.1-0.4,0.3-0.3,0.6
			c0.3,1.3,0,2.5,0.2,3.8c0.4,0,0.4-0.3,0.5-0.5c0.4-1,0.8-1.9,1.2-2.9c0.1-0.3,0.3-0.7,0.7-0.6c1.5,0.3,3-0.2,4.4,0.3
			c0.2,0.1,0.4,0.1,0.6,0c0.7-0.2,0.9,0.3,0.9,0.8c0.1,0.7-0.1,1.4,0.1,2c0.1,0.2,0,0.4,0.3,0.5c0.3,0.1,0.4-0.1,0.5-0.3
			c0.2-0.3,0.3-0.6,0.2-0.9c-0.5-1,0.3-1.5,0.8-2c0.9-0.9,3.5,0,3.8,1.1c0.2,0.5-0.1,0.8-0.4,1.2c-0.4,0.6-0.7,1.1,0.2,1.6
			c0.7,0.4,0,0.8-0.2,1c-0.2,0.2-0.5,0.3-0.6,0.6c-0.4,0.7-1,0.8-1.4,0.1c-0.4-0.8-1.6-0.7-1.8-1.6c0-0.1-0.2,0-0.4,0.2
			c-0.4,0.4-1,0.7-1.3,1.3c-0.2,0.3-0.5,0.4-0.8,0.3c-0.4-0.1-0.3-0.4-0.4-0.7c-0.3-0.8,0.1-1.6-0.4-2.4c0.3,1.2-0.5,1.8-1.3,2.3
			c-0.3,0.2-0.7,0.3-1,0.2c-0.4-0.1-0.4-0.5-0.4-0.8c0-0.5,0-1,0-1.5c0-0.2,0-0.3-0.2-0.4c-0.2-0.1-0.4,0.1-0.5,0.3
			c-0.3,0.4-0.1,0.9-0.1,1.3c0,0.4,0,1-0.5,1.1c-0.5,0.1-1.2,0.3-1.6-0.2c-0.4-0.4-0.7-0.4-1.1,0c-0.6,0.7-1.2,0.4-1.5-0.2
			c-0.2-0.4-0.3-0.5-0.7-0.2c-0.5,0.5-1.3,0.2-1.9,0.6c-0.4,0.3-0.9,0.9-1.3,0c-1.2,0.2-1.2-1-1.8-1.4c-0.3-0.2-0.3-0.4-0.1-0.7
			c0.1-0.2,0.2-0.5,0.2-0.7c-0.1-0.6-0.5-0.8-1-0.9c-0.3,0-0.4,0.4-0.5,0.7c-0.5,1.3-1.1,2.2-2.3,3.1c-1.1,0.8-2-0.1-2.9,0.4
			c-0.5,0.2-0.7-0.5-0.7-1c0-0.7,0-1.4-0.2-2.2c0,0.6,0,1.1,0,1.7c0.1,0.6-0.2,0.8-0.7,0.9c-0.3,0.1-0.6,0.2-0.9,0.4
			c-0.2,0.1-0.3,0.5-0.6,0.3c-0.3-0.1-0.3-0.4-0.3-0.8c0-0.8,0-1.5,0-2.3c0-0.2,0.1-0.5-0.2-0.6c-0.2-0.1-0.4,0.2-0.5,0.3
			c-0.3,0.4-0.4,0.9-0.3,1.4c0,0.2,0.1,0.4,0,0.5c-0.3,0.3-0.1,1.1-0.7,1.1c-0.5,0.1-1.6-1.2-1.6-1.7c0-1.2,0.6-2.4,0.7-3.6
			c0-0.3,1.9-1,2.4-0.8c1.2,0.4,2.4,0.3,3.5,0.4c0.8,0.1,1.2,0.6,0.9,1.3c-0.1,0.3,0.3,2.2,0.5,2.3c0.3,0.2,0.7,0.4,1.1,0.2
			c0.5-0.2,0.2-0.5,0.2-0.8c0-0.6,0.8-0.8,0.7-1.5c0-0.2,0.2-0.5,0.1-0.5c-1-1,0.1-1,0.5-1.1c1.3-0.5,2.6-0.9,3.9-1.3
			c0.3-0.1,0.6-0.2,0.8,0.1c0.5,0.8,1.3,0.9,2.1,1.2c0.8,0.3,0.8,0.7,0.5,1.3c-0.2,0.3-0.1,1-0.8,0.9c1,0.1,1.1,1,1.5,1.6
			c0.1,0.2,0.1,0.4,0.4,0.4c0.2,0,0.3-0.2,0.3-0.4c0-1.5,0-3,0-4.4c0.3-0.3,0.6-0.2,1-0.3c0.6-0.1,1-0.5,1.2-1.1
			c0.1-0.5,0-1.1-0.4-1.5c-0.4-0.3-0.8-0.4-1.2-0.2c-0.4,0.2-0.7,0.6-0.6,1.1c0.1,0.4,0.4,0.8,0.9,0.6c-0.5,0-0.8-0.1-0.9-0.6
			c-0.1-0.5,0.2-0.8,0.6-1c0.4-0.2,0.8-0.2,1.1,0.2c0.4,0.5,0.5,1,0.2,1.6c-0.3,0.6-0.8,0.8-1.4,0.7c-0.7-0.1-1.3-0.5-1.5-1.2
			c-0.2-0.8-0.2-1.5,0.5-2.1c0.7-0.6,1.4-0.5,2.2-0.3c0.8,0.3,1.3,0.8,1.3,1.7c0,0.2,0,0.4,0,0.6C87.6,73.6,87.3,73.1,87.7,72.8z"/>
		<path class="st1" d="M53.7,79.9c-0.3,0-0.4-0.3-0.4-0.5c0-0.5-0.2-1-0.7-0.9c-0.5,0.1-1.2,0.3-1.2,1.1c0,0.3,0,0.5,0,0.8
			c0.3,0.6,0,1.1-0.6,1.3c-0.7,0.2-1-0.3-1-0.9c-0.9,0.8-2,1.2-3.1,1.4c-0.6,0.1-1.4-0.3-1.9-0.8c-0.9-0.8-1.2-2-1.5-3.2
			c-0.2-1,0.6-1.4,1.4-1.6c0.7-0.2,1.3-0.6,2-0.8c0.4-0.1,0.7-0.4,0.5-0.9C47,74.2,47.3,74,47.8,74c0.5,0,1.1-0.1,1.3,0.6
			c0.1,0.5,0,1.1,0,1.6c0,0.4,0.2,0.6,0.5,0.7c0.4,0.1,0.4-0.2,0.5-0.4c0.2-0.3,0.4-0.4,0.8-0.3c0.9,0.2,1.8-0.2,2.6,0.4
			c0.2,0.2,0.5-0.1,0.8-0.3c0.8-0.5,1.6-0.5,2.5-0.5c0.4,0,0.6,0.2,0.5,0.6c-0.3,0.2-0.5,0.1-0.8,0.1c-1.6-0.1-2.4,0.7-2.5,2.3
			C53.9,79.2,54,79.6,53.7,79.9z"/>
		<path class="st1" d="M53.7,79.9c0-0.9-0.1-1.8,0.4-2.6c0.6-1,1.6-1.3,3.3-0.9c1,1,1,1.2,0,2.3c-0.2,0.3-0.7,0.4-0.3,1
			c0.5,0.6,1.1,0.6,1.7,0.5c0.5,0,0.5-0.4,0.5-0.8c0.1-1.9,0.9-2.9,2.6-3.4c1-0.3,2.6,1,2.5,2.1c-0.1,0.8,0,1.7,0,2.5
			c0,0.8-0.2,1.2-1,1c-0.5-0.1-0.8-0.1-1.2,0.4c-0.3,0.4-0.5,0.2-0.8-0.1c-0.5-0.5-1-0.9-1.8-1c-1-0.2-1.2,0.7-1.7,1.1
			c-0.6,0.6-0.5,0.7-1,0c-0.1-0.2-0.4-0.2-0.7-0.2C55,81.7,54.1,81.1,53.7,79.9z"/>
		<path class="st0" d="M51.6,68.4c1.5-1,2.6-2.3,3.4-3.9c0.3-0.5,0.5-0.9,1.2-0.9c0.9,0.3,0.9,0.9,0.5,1.6
			c-2.4,4.4-6.1,6.9-11.1,7.1c-0.7,0-1.2-0.1-1.2-0.9c0-0.7,0.6-0.9,1.2-0.9C47.8,70.4,49.8,69.8,51.6,68.4z"/>
		<path class="st0" d="M86.9,63.6c0.5,0.3,0.8,0.9,1.1,1.4c0.9,1.3,2,2.3,3.3,3.2c1.8,1.3,3.8,2,5.9,2.3c0.7,0.1,1.1,0.3,1,1.1
			c-0.1,0.7-0.6,0.8-1.2,0.7c-4.7-0.7-8.4-3-11-7.1C85.4,64.3,85.7,63.7,86.9,63.6z"/>
		<path class="st1" d="M87.7,72.8c-0.1,0.7,0.2,1.4-0.5,2.1c0.1-0.5,0.1-0.9,0.1-1.3c0-1.3-0.9-2-2.3-1.9c-0.9,0.1-1.4,0.9-1.3,2
			c0.1,0.7,0.6,1,1.2,1.2c0.6,0.2,1.1-0.1,1.4-0.6c0.2-0.5,0.1-1-0.3-1.4c-0.3-0.3-0.5-0.3-0.8-0.1c-0.3,0.2-0.6,0.5-0.5,0.8
			c0.1,0.3,0.3,0.7,0.7,0.2c0.1-0.2,0.2-0.4,0.4-0.2c0.2,0.1,0.1,0.3,0,0.5c-0.2,0.4-0.5,0.6-0.8,0.4c-0.5-0.3-1-0.6-0.8-1.3
			c0.2-0.5,0.3-1,1-1.1c0.6-0.1,1.1,0.1,1.5,0.6c0.4,0.6,0.4,1.2,0.1,1.8c-0.5,0.9-1.4,1-2.3,1c-1.1-0.4-1.6-1.2-1.5-2.4
			c0-0.8,0.9-1.9,1.8-2.1c1.1-0.3,2,0,2.7,1.1C87.5,72.3,87.6,72.6,87.7,72.8z"/>
		<path class="st6" d="M75.8,108.8c-0.6,2.6-1.7,4.8-3.8,6.6c-0.4,0.4-0.9,0.3-1.3-0.1c-1.9-1.7-3.1-3.9-3.6-6.4
			c-0.1-0.6,0.3-1,0.8-1.1c2.3-0.5,4.7-0.5,7,0C75.5,108,75.8,108.3,75.8,108.8z"/>
		<path class="st7" d="M71.5,118.2c2,0.1,3.3,1.3,4.3,2.9c0.3,0.4,0.1,0.9-0.3,1.2c-0.4,0.3-0.9,0.2-1.2-0.2
			c-0.4-0.4-0.7-0.9-1.2-1.2c-1.2-1-2.3-1-3.5,0c-0.4,0.4-0.8,0.8-1.2,1.2c-0.4,0.4-0.8,0.4-1.2,0.1c-0.4-0.3-0.5-0.8-0.3-1.2
			C68.1,119.5,69.5,118.3,71.5,118.2z"/>
		<path class="st8" d="M103.5,96.3c0,3-3,6.5-5.9,7c-2.7,0.5-5.5-2-5.5-4.7c0.1-4.5,5.3-7.7,9.3-5.7
			C102.8,93.7,103.6,94.8,103.5,96.3z"/>
		<path class="st9" d="M115.4,95.8c1,1.6,1.5,3.3,1.8,5c0.5,3.4,0.1,6.6-1.4,9.6c-1.6,3.1-4.3,4.3-7.5,4.9c-0.5,0.1-0.9,0.1-1.4,0.2
			c-0.1,0-0.2,0-0.5,0c3.5-2.2,5.9-5,7.5-8.6C115.3,103.4,115.8,99.7,115.4,95.8z"/>
		<path class="st10" d="M107.2,103.9c0,1.5-1.5,3.2-2.9,3.5c-1.4,0.2-2.5-0.9-2-2.4c0.3-1.2,1.1-2,2.1-2.6c0.6-0.4,1.3-0.7,2-0.3
			C107.1,102.5,107.2,103.3,107.2,103.9z"/>
		<path class="st8" d="M44.3,92.3c3.7,0,7.1,3.9,6.3,7.3c-0.6,2.7-3.5,4.4-6.1,3.5c-2.9-1.1-4.6-3.2-5.2-6.2
			c-0.4-2.5,1.4-4.4,4.3-4.6C43.9,92.3,44.1,92.3,44.3,92.3z"/>
		<path class="st9" d="M36.4,115.5c-3-0.3-5.9-0.9-8.1-3.3c-1.5-1.8-2.2-3.9-2.6-6.1c-0.6-3.6,0-7,1.7-10.2
			c-0.3,3.8,0.2,7.5,1.7,11.1C30.7,110.5,33.1,113.4,36.4,115.5z"/>
		<path class="st10" d="M40.7,105.7c0,1-0.8,1.8-1.7,1.8c-1.9,0-3.7-2.3-3.2-4.1c0.3-1.3,1.2-1.7,2.4-1.1
			C39.5,102.8,40.7,104.4,40.7,105.7z"/>
		<path class="st1" d="M63,79.2c0.1,1-0.9,0.5-1.2,0.9c-0.2,0.2-1.1-0.8-1-1.3c0.1-0.8,0.8-1,1.3-1C62.9,77.8,63.1,78.5,63,79.2z"/>
		<path class="st11" d="M73.7,109.5c-0.4,1.4-1.1,2.5-1.9,3.6c-0.3,0.4-0.5,0.4-0.8,0c-0.7-1-1.3-2-1.8-3.1c-0.1-0.4,0-0.5,0.3-0.5
			C71,109.2,72.3,109.2,73.7,109.5z"/>
	</g>
</g>
</svg>
